<?xml version="1.0" encoding="UTF-8"?>
<svg width="498px" height="498px" viewBox="0 0 498 498" version="1.1" xmlns="http://www.w3.org/2000/svg" xmlns:xlink="http://www.w3.org/1999/xlink">
    <!-- Generator: Sketch 50.2 (55047) - http://www.bohemiancoding.com/sketch -->
    <title>Group</title>
    <desc>Created with Sketch.</desc>
    <defs></defs>
    <g id="Page-1" stroke="none" stroke-width="1" fill="none" fill-rule="evenodd">
        <g id="Group">
            <path d="M0.921,249 C0.921,111.981 111.988,0.921 248.994,0.921 C386.008,0.921 497.079,111.982 497.079,249 C497.079,386.003 386.008,497.079 248.994,497.079 C111.988,497.079 0.921,386.003 0.921,249 L0.921,249 Z" id="Shape" fill="#009B00"></path>
            <g transform="translate(86.000000, 129.000000)">
                <path d="M336.147,236.454 C336.147,238.978 334.101,241.021 331.578,241.021 L4.704,241.021 C2.183,241.021 0.137,238.978 0.137,236.454 L0.137,4.701 C0.137,2.184 2.183,0.134 4.704,0.134 L331.578,0.134 C334.101,0.134 336.147,2.184 336.147,4.701 L336.147,236.454 L336.147,236.454 Z" id="Shape" fill="#357180"></path>
                <rect id="Rectangle-path" fill="#27636D" x="159" y="0" width="18.491" height="240.888"></rect>
                <polygon id="Shape" fill="#D7D7BF" points="168.141 11.87 12.491 11.87 12.491 229.286 168.141 229.286 323.794 229.286 323.794 11.87"></polygon>
                <rect id="Rectangle-path" fill="#C5C3AE" x="159" y="12" width="17.818" height="217.263"></rect>
                <polygon id="Shape" fill="#E7E7D6" points="168.141 229.286 18.665 222.829 18.665 4.785 168.141 11.87"></polygon>
                <polygon id="Shape" fill="#E7E7D6" points="317.62 222.829 168.141 229.286 168.141 11.87 317.62 4.785"></polygon>
                <rect id="Rectangle-path" fill="#DCDDD8" x="167" y="17" width="2.006" height="212.161"></rect>
                <g transform="translate(31.000000, 34.000000)" fill="#B9B9BA" id="Shape">
                    <path d="M125.376,8.823 C125.376,11.623 123.194,13.826 120.504,13.735 L5.097,10.047 C2.408,9.963 0.223,7.622 0.223,4.822 L0.223,4.822 C0.223,2.022 2.408,-0.181 5.097,-0.09 L120.504,3.598 C123.194,3.682 125.376,6.023 125.376,8.823 L125.376,8.823 L125.376,8.823 Z"></path>
                    <path d="M125.376,29.586 C125.376,32.386 123.194,34.589 120.504,34.505 L5.097,30.817 C2.408,30.725 0.223,28.384 0.223,25.584 L0.223,25.584 C0.223,22.784 2.408,20.588 5.097,20.672 L120.504,24.36 C123.194,24.453 125.376,26.786 125.376,29.586 L125.376,29.586 L125.376,29.586 Z"></path>
                    <path d="M125.376,49.768 C125.376,52.576 123.194,54.771 120.504,54.687 L5.098,51 C2.409,50.908 0.224,48.575 0.224,45.767 L0.224,45.767 C0.224,42.967 2.409,40.771 5.098,40.855 L120.505,44.543 C123.194,44.634 125.376,46.968 125.376,49.768 L125.376,49.768 L125.376,49.768 Z"></path>
                    <path d="M125.376,70.531 C125.376,73.339 123.194,75.542 120.504,75.45 L5.097,71.762 C2.408,71.678 0.223,69.337 0.223,66.529 L0.223,66.529 C0.223,63.729 2.408,61.533 5.097,61.625 L120.504,65.313 C123.194,65.397 125.376,67.731 125.376,70.531 L125.376,70.531 L125.376,70.531 Z"></path>
                    <path d="M125.376,91.592 C125.376,94.392 123.194,96.595 120.504,96.504 L5.097,92.816 C2.408,92.732 0.223,90.391 0.223,87.591 L0.223,87.591 C0.223,84.791 2.408,82.595 5.097,82.687 L120.504,86.375 C123.194,86.459 125.376,88.792 125.376,91.592 L125.376,91.592 L125.376,91.592 Z"></path>
                    <path d="M125.376,112.355 C125.376,115.155 123.194,117.358 120.504,117.267 L5.097,113.579 C2.408,113.495 0.223,111.154 0.223,108.354 L0.223,108.354 C0.223,105.562 2.408,103.358 5.097,103.442 L120.504,107.13 C123.194,107.222 125.376,109.563 125.376,112.355 L125.376,112.355 L125.376,112.355 Z"></path>
                    <path d="M125.376,132.537 C125.376,135.337 123.194,137.54 120.504,137.456 L5.097,133.768 C2.408,133.676 0.223,131.335 0.223,128.535 L0.223,128.535 C0.223,125.743 2.408,123.539 5.097,123.631 L120.504,127.319 C123.194,127.404 125.376,129.745 125.376,132.537 L125.376,132.537 L125.376,132.537 Z"></path>
                    <path d="M125.376,153.3 C125.376,156.108 123.194,158.303 120.504,158.219 L5.097,154.531 C2.408,154.439 0.223,152.106 0.223,149.298 L0.223,149.298 C0.223,146.506 2.408,144.302 5.097,144.394 L120.504,148.082 C123.194,148.167 125.376,150.508 125.376,153.3 L125.376,153.3 L125.376,153.3 Z"></path>
                </g>
                <g transform="translate(181.000000, 34.000000)" fill="#B9B9BA" id="Shape">
                    <path d="M-0.271,8.823 C-0.271,11.623 1.911,13.826 4.6,13.735 L120.007,10.047 C122.696,9.963 124.88,7.622 124.88,4.822 L124.88,4.822 C124.88,2.022 122.696,-0.181 120.007,-0.09 L4.6,3.598 C1.911,3.682 -0.271,6.023 -0.271,8.823 L-0.271,8.823 L-0.271,8.823 Z"></path>
                    <path d="M-0.271,29.586 C-0.271,32.386 1.911,34.589 4.6,34.505 L120.007,30.817 C122.696,30.725 124.88,28.384 124.88,25.584 L124.88,25.584 C124.88,22.784 122.696,20.588 120.007,20.672 L4.6,24.361 C1.911,24.453 -0.271,26.786 -0.271,29.586 L-0.271,29.586 L-0.271,29.586 Z"></path>
                    <path d="M-0.271,49.768 C-0.271,52.576 1.911,54.771 4.6,54.687 L120.007,51 C122.696,50.908 124.88,48.575 124.88,45.767 L124.88,45.767 C124.88,42.967 122.696,40.771 120.007,40.855 L4.6,44.542 C1.911,44.634 -0.271,46.968 -0.271,49.768 L-0.271,49.768 L-0.271,49.768 Z"></path>
                    <path d="M-0.271,70.531 C-0.271,73.339 1.911,75.542 4.6,75.45 L120.007,71.762 C122.696,71.678 124.88,69.337 124.88,66.529 L124.88,66.529 C124.88,63.729 122.696,61.533 120.007,61.625 L4.6,65.313 C1.911,65.397 -0.271,67.731 -0.271,70.531 L-0.271,70.531 L-0.271,70.531 Z"></path>
                    <path d="M-0.271,91.592 C-0.271,94.392 1.911,96.595 4.6,96.504 L120.007,92.816 C122.696,92.732 124.88,90.391 124.88,87.591 L124.88,87.591 C124.88,84.791 122.696,82.595 120.007,82.687 L4.6,86.375 C1.911,86.459 -0.271,88.792 -0.271,91.592 L-0.271,91.592 L-0.271,91.592 Z"></path>
                    <path d="M-0.271,112.355 C-0.271,115.155 1.911,117.358 4.6,117.267 L120.007,113.579 C122.696,113.495 124.88,111.154 124.88,108.354 L124.88,108.354 C124.88,105.562 122.696,103.358 120.007,103.442 L4.6,107.13 C1.911,107.222 -0.271,109.563 -0.271,112.355 L-0.271,112.355 L-0.271,112.355 Z"></path>
                    <path d="M-0.271,132.537 C-0.271,135.337 1.911,137.54 4.6,137.456 L120.007,133.768 C122.696,133.676 124.88,131.335 124.88,128.535 L124.88,128.535 C124.88,125.743 122.696,123.539 120.007,123.631 L4.6,127.32 C1.911,127.404 -0.271,129.745 -0.271,132.537 L-0.271,132.537 L-0.271,132.537 Z"></path>
                    <path d="M-0.271,153.3 C-0.271,156.108 1.911,158.303 4.6,158.219 L120.007,154.531 C122.696,154.439 124.88,152.106 124.88,149.298 L124.88,149.298 C124.88,146.506 122.696,144.302 120.007,144.394 L4.6,148.083 C1.911,148.167 -0.271,150.508 -0.271,153.3 L-0.271,153.3 L-0.271,153.3 Z"></path>
                </g>
            </g>
        </g>
    </g>
</svg>