<?xml version="1.0" encoding="UTF-8"?>
<svg width="498px" height="498px" viewBox="0 0 498 498" version="1.1" xmlns="http://www.w3.org/2000/svg" xmlns:xlink="http://www.w3.org/1999/xlink">
    <!-- Generator: Sketch 50.2 (55047) - http://www.bohemiancoding.com/sketch -->
    <title>Group</title>
    <desc>Created with Sketch.</desc>
    <defs></defs>
    <g id="Page-1" stroke="none" stroke-width="1" fill="none" fill-rule="evenodd">
        <g id="Group">
            <path d="M0.921,249.008 C0.921,111.989 111.997,0.921 249,0.921 C386.011,0.921 497.079,111.989 497.079,249.008 C497.079,386.011 386.011,497.079 249,497.079 C111.997,497.079 0.921,386.011 0.921,249.008 L0.921,249.008 Z" id="Shape" fill="#009B00"></path>
            <polygon id="Shape" fill="#FFFFFF" points="248.641 64.733 272.15 112.349 324.7 119.992 286.671 157.058 295.652 209.401 248.641 184.683 201.637 209.401 210.618 157.058 172.588 119.992 225.139 112.349"></polygon>
            <polygon id="Shape" fill="#FFFFFF" points="357.62 222.561 381.13 270.184 433.681 277.819 395.65 314.885 404.632 367.229 357.62 342.519 310.616 367.229 319.598 314.885 281.567 277.819 334.118 270.184"></polygon>
            <polygon id="Shape" fill="#FFFFFF" points="139.661 222.561 163.17 270.184 215.721 277.819 177.69 314.885 186.672 367.229 139.661 342.519 92.656 367.229 101.639 314.885 63.608 277.819 116.159 270.184"></polygon>
        </g>
    </g>
</svg>