<?xml version="1.0" encoding="UTF-8"?>
<svg width="498px" height="498px" viewBox="0 0 498 498" version="1.1" xmlns="http://www.w3.org/2000/svg" xmlns:xlink="http://www.w3.org/1999/xlink">
    <!-- Generator: Sketch 50.2 (55047) - http://www.bohemiancoding.com/sketch -->
    <title>Group</title>
    <desc>Created with Sketch.</desc>
    <defs></defs>
    <g id="Page-1" stroke="none" stroke-width="1" fill="none" fill-rule="evenodd">
        <g id="Group">
            <path d="M0.921,249.008 C0.921,111.989 111.997,0.921 249,0.921 C386.011,0.921 497.079,111.989 497.079,249.008 C497.079,386.011 386.011,497.079 249,497.079 C111.997,497.079 0.921,386.011 0.921,249.008 L0.921,249.008 Z" id="Shape" fill="#009B00"></path>
            <polygon id="Shape" fill="#FFFFFF" points="251.647 143.245 268.516 177.411 306.225 182.896 278.936 209.497 285.385 247.057 251.647 229.319 217.916 247.057 224.358 209.497 197.069 182.896 234.785 177.411"></polygon>
            <polygon id="Shape" fill="#FFFFFF" points="389.584 143.245 406.452 177.419 444.161 182.896 416.872 209.493 423.314 247.057 389.584 229.323 355.853 247.057 362.295 209.493 335.006 182.896 372.715 177.419"></polygon>
            <polygon id="Shape" fill="#FFFFFF" points="315.742 268.88 332.611 303.054 370.32 308.531 343.031 335.128 349.48 372.691 315.742 354.958 282.012 372.691 288.461 335.128 261.164 308.531 298.881 303.054"></polygon>
            <polygon id="Shape" fill="#FFFFFF" points="107.139 142.262 124.008 176.437 161.717 181.914 134.428 208.511 140.877 246.074 107.139 228.34 73.408 246.074 79.857 208.511 52.562 181.914 90.277 176.437"></polygon>
            <polygon id="Shape" fill="#FFFFFF" points="178.777 264.205 195.646 298.379 233.355 303.857 206.066 330.453 212.508 368.017 178.777 350.283 145.047 368.017 151.488 330.453 124.199 303.857 161.908 298.379"></polygon>
        </g>
    </g>
</svg>